<svg id="Laag_1" data-name="Laag 1" xmlns="http://www.w3.org/2000/svg" viewBox="0 0 1001 1008"><defs><style>.cls-1{fill:#fefefe;}.cls-2,.cls-5{fill:#ad4064;}.cls-3{fill:#ff5f94;}.cls-4{fill:#ddd;}.cls-5{opacity:0;}.cls-6{fill:#669db2;stroke:#c8c8c8;stroke-miterlimit:10;}</style></defs><title>laptop</title><path class="cls-1" d="M576.25,989.09,25,669.92a16.1,16.1,0,0,1,0-27.82L358.66,447.41a16,16,0,0,1,16.11,0l548.4,320.14a16.11,16.11,0,0,1,0,27.78L592.33,989.05A16,16,0,0,1,576.25,989.09Z"/><path class="cls-2" d="M576.25,989.09,25,669.92a16.1,16.1,0,0,1,0-27.82L358.66,447.41a16,16,0,0,1,16.11,0l548.4,320.14a16.11,16.11,0,0,1,0,27.78L592.33,989.05A16,16,0,0,1,576.25,989.09Z"/><path class="cls-1" d="M575.25,978.09,24,658.92a16.1,16.1,0,0,1,0-27.82L357.66,436.41a16,16,0,0,1,16.11,0l548.4,320.14a16.11,16.11,0,0,1,0,27.78L591.33,978.05A16,16,0,0,1,575.25,978.09Z"/><path class="cls-3" d="M575.25,978.09,24,658.92a16.1,16.1,0,0,1,0-27.82L357.66,436.41a16,16,0,0,1,16.11,0l548.4,320.14a16.11,16.11,0,0,1,0,27.78L591.33,978.05A16,16,0,0,1,575.25,978.09Z"/><path class="cls-2" d="M280.2,622.82a9.82,9.82,0,0,0-5.81,1.57c-7.32,4.26-14.71,8.39-22,12.65-4.85,2.82-4.81,4,.18,7l108.18,63.51c30.07,17.64,60.22,35.14,90.17,53,6.15,3.67,11.38,4.15,17.45.08,5.91-4,12.33-7.19,18.5-10.77,5.64-3.26,5.63-4.71.06-7.95Q445.8,717.94,404.72,694q-58.92-34.37-117.81-68.77C284.8,624,282.77,622.34,280.2,622.82Z"/><path class="cls-2" d="M708.07,855.76c2.1.31,3.89-.59,5.63-1.59,7.5-4.27,15-8.52,22.46-12.88,4.56-2.66,4.61-4.16.07-6.82q-43.8-25.69-87.65-51.29a10.24,10.24,0,0,0-10.88-.11c-7.62,4.39-15.27,8.75-22.85,13.21-4.29,2.52-4.32,4,0,6.53q44,25.85,88,51.59A8.14,8.14,0,0,0,708.07,855.76Z"/><path class="cls-2" d="M284.45,608.83a7.75,7.75,0,0,0,4.19-1.4c8.5-4.84,16.95-9.75,25.5-14.51,3.66-2,3.09-3.45-.15-5.34q-44.67-26-89.25-52.24a8.11,8.11,0,0,0-8.89-.17c-8.45,4.93-16.9,9.85-25.42,14.64-3.4,1.91-3,3.34.06,5.13q44.72,26,89.38,52.12A9.63,9.63,0,0,0,284.45,608.83Z"/><path class="cls-2" d="M263.81,508.37a27.34,27.34,0,0,0-3.63,1.52c-8.52,4.81-17,9.73-25.51,14.54-3.19,1.8-3.26,3.17,0,5.07q34.43,20,68.77,40.17c2.63,1.54,5.2,1.84,8,.22Q324.3,562.36,337.3,555c3.31-1.86,3.08-3.23-.06-5q-34.39-20-68.71-40.17A9.51,9.51,0,0,0,263.81,508.37Z"/><path class="cls-2" d="M751.35,830.59a13.85,13.85,0,0,0,6.37-1.66c7.61-4.4,15.29-8.68,22.86-13.15,4.21-2.48,4.21-4.22,0-6.67q-33-19.4-66.12-38.69a9.71,9.71,0,0,0-10.38-.18c-7.94,4.5-15.91,9-23.77,13.59-3.75,2.22-3.74,3.87,0,6.07q33.43,19.7,67,39.22A20.7,20.7,0,0,0,751.35,830.59Z"/><path class="cls-2" d="M394.08,519.21a9.82,9.82,0,0,0,5.35-1.27c7.75-4.49,15.58-8.86,23.28-13.43,4.23-2.52,4.21-4.15,0-6.64q-32.4-19-64.87-37.91a10,10,0,0,0-10.82-.11c-7.6,4.42-15.27,8.71-22.85,13.16-4.54,2.66-4.57,4.2,0,6.86q32,18.79,64,37.47C390,518.45,391.92,519.38,394.08,519.21Z"/><path class="cls-2" d="M796.34,805.32a13.94,13.94,0,0,0,4.78-1.26c7.89-4.59,15.87-9,23.73-13.69,3.86-2.28,3.79-4.06-.19-6.39-18.89-11.08-37.85-22.07-56.74-33.15-4-2.36-7.84-2.14-11.76.15-7.16,4.19-14.36,8.32-21.54,12.47-5.1,2.95-5.19,4.46-.23,7.36q21.47,12.56,43,25c4.3,2.51,8.59,5,12.86,7.58A12.06,12.06,0,0,0,796.34,805.32Z"/><path class="cls-2" d="M214.59,583.77a8.72,8.72,0,0,0-4.8,1.44c-8.06,4.63-16.15,9.2-24.17,13.87-3.9,2.27-4,3.62-.21,5.86q24.65,14.55,49.41,28.92a7.57,7.57,0,0,0,8,0c8.36-4.77,16.75-9.49,25.05-14.36,4.17-2.44,4.15-3.46-.16-6-16.15-9.55-32.35-19-48.53-28.5A8.07,8.07,0,0,0,214.59,583.77Z"/><path class="cls-2" d="M505.37,753.8c-1.53-.31-2.84.44-4.14,1.18-8.35,4.78-16.68,9.6-25,14.35-3.32,1.89-3.56,3.51,0,5.55,16.52,9.57,33,19.25,49.46,28.89a7.16,7.16,0,0,0,7.56.12c8.66-4.92,17.25-10,25.94-14.81,3.45-1.92,3-3.5,0-5.22q-24.93-14.58-49.87-29.14A7,7,0,0,0,505.37,753.8Z"/><path class="cls-2" d="M309,484.1a8.23,8.23,0,0,0-5.29,1.33c-7.76,4.45-15.56,8.85-23.28,13.38-4.14,2.43-4.17,4.16-.08,6.62,7.67,4.61,15.44,9,23.14,13.6,4,2.36,7.81,2.11,11.74-.19,7.3-4.27,14.67-8.42,22-12.65,4.7-2.72,4.73-4.43.08-7.18-7.56-4.48-15.16-8.88-22.76-13.29C312.84,484.72,311.06,483.78,309,484.1Z"/><path class="cls-2" d="M441.72,547.11a9.4,9.4,0,0,0,5.69-1.45c7.61-4.42,15.26-8.74,22.85-13.18,4.24-2.49,4.33-4.16.22-6.65-7.38-4.46-14.88-8.74-22.32-13.11a9.4,9.4,0,0,0-10-.2q-12.15,6.84-24.22,13.83c-3.11,1.8-3.53,4-.2,6,7.84,4.67,15.77,9.2,23.63,13.84A8.26,8.26,0,0,0,441.72,547.11Z"/><path class="cls-2" d="M486.7,624.25a10.15,10.15,0,0,0,4.74-1.26c7.89-4.58,15.86-9,23.74-13.64,3.85-2.26,3.85-4.05,0-6.39-7.39-4.44-14.89-8.71-22.31-13.09a9.59,9.59,0,0,0-10.36-.15c-7.92,4.53-15.89,9-23.76,13.56-3.89,2.28-3.87,4.06,0,6.38,7.4,4.44,14.88,8.75,22.3,13.16A10.9,10.9,0,0,0,486.7,624.25Z"/><path class="cls-2" d="M529.75,650.2a11.73,11.73,0,0,0,6-1.29c7.88-4.61,15.83-9.08,23.67-13.76,4-2.4,4-3.89,0-6.26-7.41-4.43-14.9-8.7-22.33-13.08a10,10,0,0,0-10.84,0c-7.75,4.5-15.58,8.86-23.32,13.39-3.67,2.16-3.84,4.07-.4,6.14,7.82,4.71,15.75,9.23,23.69,13.72A14.52,14.52,0,0,0,529.75,650.2Z"/><path class="cls-2" d="M354.94,510.78a10.91,10.91,0,0,0-5.77,1.33c-7.59,4.39-15.24,8.66-22.81,13.09-4.65,2.71-4.61,4.41.11,7.22,7,4.15,14,8.19,21,12.31,3.89,2.31,7.76,2.51,11.74.2,7.44-4.32,14.94-8.56,22.36-12.92,4.74-2.79,4.7-4.23-.11-7.11-7-4.16-14-8.23-20.94-12.4A10.29,10.29,0,0,0,354.94,510.78Z"/><path class="cls-2" d="M484.63,637.3a12.76,12.76,0,0,0-5.76,1.7c-7.6,4.4-15.27,8.7-22.85,13.14-4.45,2.6-4.41,4.22.12,6.9,7,4.14,14.08,8.13,21,12.33,4.11,2.48,8,2.58,12.18.14,7.3-4.28,14.69-8.4,22-12.66,4.86-2.83,4.9-4.36.21-7.15-7.13-4.24-14.29-8.4-21.43-12.62A13,13,0,0,0,484.63,637.3Z"/><path class="cls-2" d="M395.58,585.69a10,10,0,0,0-5.17,1.53c-7.6,4.38-15.25,8.67-22.82,13.1-4.61,2.69-4.54,4.32.22,7.15,7,4.13,14,8.16,21,12.27,3.88,2.28,7.64,2.63,11.7.22,7.54-4.48,15.24-8.68,22.81-13.11,4.24-2.48,4.3-4.21.23-6.64-7.53-4.49-15.17-8.8-22.73-13.24A10.54,10.54,0,0,0,395.58,585.69Z"/><path class="cls-2" d="M663.28,676.73a13.55,13.55,0,0,0,5.58-1.73c7.62-4.39,15.29-8.69,22.87-13.15,4.14-2.44,4.12-4.28,0-6.77-7.27-4.35-14.6-8.59-21.93-12.84a10.38,10.38,0,0,0-10.92,0c-7.65,4.36-15.29,8.72-22.87,13.18-4.43,2.61-4.37,4.28.09,6.93,6.85,4.08,13.74,8.09,20.62,12.12A13.89,13.89,0,0,0,663.28,676.73Z"/><path class="cls-2" d="M173.61,596.31a8.45,8.45,0,0,0,2.46-.35c9.56-4.57,18.52-10.21,27.61-15.62,2-1.19,1.63-3.28-.32-4.44-8.55-5-17.11-10.08-25.8-14.87a7.88,7.88,0,0,0-7.68.47q-12.33,6.93-24.55,14.07c-3.18,1.86-3.36,4-.07,5.94,7.83,4.64,15.71,9.19,23.56,13.8A9.73,9.73,0,0,0,173.61,596.31Z"/><path class="cls-2" d="M440.67,611.58a11.84,11.84,0,0,0-6.07,1.52c-7.59,4.43-15.25,8.72-22.84,13.15-4.22,2.45-4.3,4.21-.2,6.67,7.39,4.43,14.91,8.65,22.32,13.05a9.58,9.58,0,0,0,10.34.11c7.92-4.52,15.87-9,23.73-13.59,3.73-2.19,3.81-3.92.22-6.09-7.65-4.63-15.46-9-23.14-13.62C443.5,611.86,441.87,611.94,440.67,611.58Z"/><path class="cls-2" d="M486.05,573a8.44,8.44,0,0,0,5.42-1.3c7.77-4.43,15.54-8.85,23.22-13.43,4.2-2.51,4.18-4.08-.07-6.63-7.38-4.43-14.86-8.69-22.29-13a9.71,9.71,0,0,0-10.37.07c-7.77,4.43-15.57,8.8-23.27,13.35-4.11,2.43-4.05,4.23.09,6.7,7.11,4.23,14.27,8.36,21.42,12.53C482.07,572.31,483.94,573.4,486.05,573Z"/><path class="cls-2" d="M663.64,846.39a12.11,12.11,0,0,0-6.06,1.65c-7.45,4.3-14.94,8.53-22.37,12.86-4.5,2.62-4.56,4.18-.14,6.86,7.21,4.38,14.51,8.62,21.8,12.86a10.27,10.27,0,0,0,10.86.12c7.75-4.42,15.55-8.78,23.24-13.31,3.81-2.23,3.91-4.33.21-6.55-7.65-4.61-15.45-9-23.16-13.48A10,10,0,0,0,663.64,846.39Z"/><path class="cls-2" d="M527.78,699.14a9.93,9.93,0,0,0,5.2-1.39c7.6-4.41,15.27-8.68,22.87-13.1,4.52-2.63,4.58-4.22.17-6.88-7.25-4.37-14.58-8.6-21.88-12.89a9.94,9.94,0,0,0-10.82-.08c-7.45,4.37-15,8.55-22.47,12.9-5.19,3-5.21,4.36-.21,7.33,7,4.15,14,8.21,21,12.37A10.53,10.53,0,0,0,527.78,699.14Z"/><path class="cls-2" d="M508.3,701.94a10.54,10.54,0,0,0-7,1.61c-7.47,4.32-15,8.59-22.43,12.93-4.52,2.62-4.61,4.35-.3,6.89,7.27,4.31,14.65,8.45,21.9,12.79a9.7,9.7,0,0,0,10.37.32c8.1-4.54,16.15-9.18,24.19-13.83,2.6-1.5,4-3.52.66-5.55-8.23-5-16.58-9.76-24.93-14.52A5.55,5.55,0,0,0,508.3,701.94Z"/><path class="cls-2" d="M530.48,599.18a10.56,10.56,0,0,0,5.28-1.63q11.68-6.63,23.3-13.43c3.87-2.28,3.92-4.13.09-6.43-7.54-4.54-15.16-8.92-22.77-13.34a8.79,8.79,0,0,0-9.06-.34c-8.42,4.67-16.76,9.47-25.1,14.29-3,1.75-3,3.86-.07,5.62q12.2,7.25,24.55,14.24A15.81,15.81,0,0,0,530.48,599.18Z"/><path class="cls-2" d="M573.27,624.71a10,10,0,0,0,6.64-1.26c7.77-4.44,15.56-8.85,23.28-13.4,4-2.37,4-4.36-.08-6.8-7.4-4.43-14.89-8.7-22.36-13a9.6,9.6,0,0,0-10,0c-7.94,4.49-15.79,9.14-23.71,13.66-3,1.74-4,3.93-.71,6,8,4.93,16.29,9.54,24.51,14.19A6.46,6.46,0,0,0,573.27,624.71Z"/><path class="cls-2" d="M351.7,559.85a8.93,8.93,0,0,0-5.23,1.29c-7.76,4.47-15.56,8.86-23.27,13.41-4.53,2.66-4.47,4.08.14,6.81,7.13,4.24,14.33,8.35,21.43,12.63,4,2.4,7.73,2.31,11.7,0,7.43-4.39,15-8.57,22.43-12.9,4.41-2.57,4.39-4.29-.1-7-7.27-4.33-14.59-8.57-21.88-12.87A9.25,9.25,0,0,0,351.7,559.85Z"/><path class="cls-2" d="M417.15,685.92a8.07,8.07,0,0,0,5.33-1.31c7.91-4.54,15.84-9,23.69-13.68,3.74-2.21,3.81-3.81.18-6-7.64-4.65-15.4-9.12-23.13-13.62a9.33,9.33,0,0,0-9.92.17c-7.76,4.46-15.56,8.85-23.27,13.41-4.45,2.63-4.38,4.18.17,6.89,7.13,4.23,14.31,8.35,21.46,12.54C413.41,685.34,415.16,686.26,417.15,685.92Z"/><path class="cls-2" d="M706.84,702.48a12.36,12.36,0,0,0,6.72-1.81c7.48-4.29,15-8.55,22.42-12.9,4-2.34,4-4.34,0-6.74-7.4-4.43-14.85-8.76-22.32-13a9.32,9.32,0,0,0-9.52-.3c-8.26,4.58-16.43,9.33-24.63,14-2.84,1.63-3.56,3.78-.48,5.65,8.08,4.9,16.28,9.6,24.48,14.28A11.1,11.1,0,0,0,706.84,702.48Z"/><path class="cls-2" d="M551,727.75a8.49,8.49,0,0,0-5.18,1.49c-7.62,4.36-15.25,8.7-22.83,13.14-4.58,2.68-4.61,4.24-.17,6.88,7.26,4.32,14.6,8.5,21.87,12.8,3.45,2,6.86,2.28,10.36.28q12.09-6.92,24.16-13.85c3.15-1.81,3.63-3.8.18-5.82q-11.79-6.95-23.6-13.86A8.29,8.29,0,0,0,551,727.75Z"/><path class="cls-2" d="M751.42,728.35a12.63,12.63,0,0,0,5.92-1.57c7.63-4.38,15.3-8.68,22.88-13.13,4.24-2.48,4.3-4.19.19-6.67-7.39-4.45-14.88-8.75-22.35-13.08a10,10,0,0,0-10.46,0c-8,4.48-15.83,9.09-23.75,13.62-2.5,1.43-3.85,3.5-.94,5.3,8.46,5.23,17.15,10.08,25.79,15A8.17,8.17,0,0,0,751.42,728.35Z"/><path class="cls-2" d="M659.38,776.73a10.11,10.11,0,0,0,6.22-1.39c7.76-4.47,15.56-8.89,23.29-13.42,3.93-2.31,4-4,.1-6.35-7.38-4.46-14.84-8.79-22.31-13.11a9.72,9.72,0,0,0-10.4,0c-7.73,4.51-15.53,8.92-23.29,13.38-2.64,1.53-4.73,3.46-.93,5.77,8.08,4.9,16.3,9.56,24.51,14.24A9.57,9.57,0,0,0,659.38,776.73Z"/><path class="cls-2" d="M619.86,614.93a8.32,8.32,0,0,0-5.13,1.47c-7.62,4.34-15.24,8.67-22.8,13.12-4.5,2.65-4.48,4.1,0,6.8,7.24,4.34,14.56,8.53,21.81,12.85a9.38,9.38,0,0,0,9.92.29q12.13-6.76,24.11-13.81c3.64-2.15,3.65-3.86,0-6.08-7.64-4.63-15.4-9-23.12-13.52A7.86,7.86,0,0,0,619.86,614.93Z"/><path class="cls-2" d="M663.84,727.79a9,9,0,0,0,5.17-1.52c7.61-4.37,15.25-8.69,22.8-13.16,4.29-2.54,4.34-4.07.24-6.54-7.25-4.36-14.61-8.53-21.88-12.85a9.92,9.92,0,0,0-10.82-.1c-7.6,4.4-15.27,8.69-22.85,13.14-4.26,2.5-4.31,4.16-.19,6.63,7.25,4.34,14.59,8.53,21.88,12.81A9.3,9.3,0,0,0,663.84,727.79Z"/><path class="cls-2" d="M619.59,701.92a7.49,7.49,0,0,0,4.6-1.33c7.92-4.52,15.85-9,23.7-13.61,4-2.34,4-3.87,0-6.27-7.39-4.43-14.87-8.7-22.3-13.08a9.49,9.49,0,0,0-10.32,0c-7.87,4.57-15.81,9-23.7,13.57-2.92,1.68-4.07,3.59-.39,5.74l24,14A7.76,7.76,0,0,0,619.59,701.92Z"/><path class="cls-2" d="M572.94,725.05a8.42,8.42,0,0,0,3.69-1.23c7.9-4.54,15.84-9,23.69-13.6,4.23-2.49,4.21-4-.09-6.53-7.39-4.43-14.85-8.73-22.29-13.07a9.09,9.09,0,0,0-9.48-.26c-8.24,4.63-16.4,9.39-24.57,14.11-3.39,2-3.17,3.88.09,5.78q11.58,6.78,23.14,13.6C568.61,724.73,570.2,725,572.94,725.05Z"/><path class="cls-2" d="M373.41,660a8.93,8.93,0,0,0,5.12-1.61c7.6-4.39,15.25-8.68,22.83-13.1,4.5-2.63,4.47-4-.16-6.73-7-4.16-14.05-8.13-21-12.35a10.73,10.73,0,0,0-12.12,0c-7.09,4.25-14.33,8.26-21.49,12.41-5.19,3-5.26,4.41-.28,7.36,7.12,4.22,14.29,8.34,21.43,12.53A8.75,8.75,0,0,0,373.41,660Z"/><path class="cls-2" d="M442.68,562.63a9.64,9.64,0,0,0-4.57,1.29c-7.89,4.55-15.85,9-23.7,13.59-3.72,2.18-3.78,3.85-.14,6,7.65,4.61,15.4,9.06,23.16,13.5a9.09,9.09,0,0,0,9.47,0c7.92-4.48,15.85-9,23.69-13.57,4-2.38,4.07-4,.22-6.3-7.38-4.42-14.85-8.69-22.26-13.07A11.47,11.47,0,0,0,442.68,562.63Z"/><path class="cls-2" d="M574.68,794.72a8.24,8.24,0,0,0-5,1.33c-7.75,4.44-15.52,8.86-23.22,13.4-3.94,2.33-4,4.08-.19,6.37,7.53,4.51,15.18,8.83,22.77,13.23a9.11,9.11,0,0,0,9.48.13c8.09-4.53,16.11-9.19,24.13-13.82,2.75-1.59,3.73-3.65.52-5.58-8.07-4.87-16.29-9.51-24.42-14.29A8.38,8.38,0,0,0,574.68,794.72Z"/><path class="cls-2" d="M616.17,750.82a8.35,8.35,0,0,0,5.32-1.42C629.25,745,637,740.53,644.73,736c4.07-2.4,4.07-3.82,0-6.25-7.39-4.42-14.89-8.67-22.3-13.06a9.36,9.36,0,0,0-10.27-.11c-7.88,4.58-15.84,9-23.75,13.51-2.95,1.68-4,3.66-.42,5.8,8,4.71,16,9.36,24,14A6.36,6.36,0,0,0,616.17,750.82Z"/><path class="cls-2" d="M595.46,753.78a8.2,8.2,0,0,0-5.18,1.37c-7.74,4.46-15.51,8.86-23.2,13.39-4.17,2.46-4.13,4,.11,6.52,7.26,4.3,14.6,8.44,21.85,12.76a9.8,9.8,0,0,0,10.76,0c7.73-4.49,15.53-8.83,23.23-13.37,3.78-2.22,3.85-3.84.28-6-7.65-4.61-15.39-9.08-23.1-13.59A7.49,7.49,0,0,0,595.46,753.78Z"/><path class="cls-2" d="M328.76,634.06a9,9,0,0,0,5.23-1.35c7.76-4.49,15.55-8.92,23.27-13.47,4-2.36,4.07-4,.19-6.28-7.4-4.43-14.9-8.69-22.33-13.08a9.65,9.65,0,0,0-10.37,0c-7.78,4.44-15.6,8.82-23.31,13.37-4,2.39-4.09,4-.2,6.34,7.52,4.55,15.17,8.9,22.76,13.34A8.14,8.14,0,0,0,328.76,634.06Z"/><path class="cls-2" d="M796.27,754a9.67,9.67,0,0,0,5.41-1.45c7.46-4.32,15-8.56,22.42-12.9,4.54-2.64,4.6-4.2.17-6.86-7.25-4.35-14.56-8.6-21.87-12.86a9.84,9.84,0,0,0-10.41-.08c-7.78,4.42-15.59,8.81-23.3,13.37-4.08,2.41-4.14,4-.24,6.31,7.52,4.55,15.17,8.88,22.75,13.34A9.52,9.52,0,0,0,796.27,754Z"/><path class="cls-2" d="M575.82,640.14a12.45,12.45,0,0,0-5.58,1.92q-11,6.3-22,12.64c-5,2.89-5,4.23-.27,7,7,4.14,14,8.15,21,12.33a10.82,10.82,0,0,0,12.13,0c7.25-4.33,14.65-8.4,22-12.63,4.63-2.69,4.67-4.05.2-6.73q-10.65-6.37-21.39-12.63A11.78,11.78,0,0,0,575.82,640.14Z"/><path class="cls-2" d="M460.19,711.69a10.1,10.1,0,0,0,6.84-1.53c7.63-4.38,15.28-8.71,22.87-13.14,4.23-2.47,4.24-4.08.05-6.56-7.28-4.31-14.66-8.47-21.92-12.83a9.54,9.54,0,0,0-10.37-.23q-11.88,6.78-23.75,13.63c-2.55,1.48-4.18,3.5-.84,5.53,8.22,5,16.62,9.7,25,14.46A6.23,6.23,0,0,0,460.19,711.69Z"/><path class="cls-2" d="M617.45,856.18a12.37,12.37,0,0,0,6.55-1.73c7.46-4.32,15-8.53,22.43-12.86,4.16-2.42,4.22-4.18.1-6.65-7.4-4.43-14.88-8.71-22.34-13a9.17,9.17,0,0,0-9.5-.26c-8.25,4.62-16.42,9.37-24.62,14.07-3.07,1.76-3.16,3.76-.15,5.55q12,7.14,24.09,14A10.87,10.87,0,0,0,617.45,856.18Z"/><path class="cls-2" d="M706.83,753.67a10.38,10.38,0,0,0,6.61-1.61c7.63-4.38,15.27-8.73,22.86-13.18,4.18-2.46,4.14-4-.14-6.52-7.12-4.25-14.32-8.37-21.44-12.62-3.59-2.15-7.16-2.46-10.83-.36-7.92,4.52-15.84,9-23.72,13.58-2.6,1.5-4,3.65-.72,5.64,8.23,5,16.63,9.65,25,14.38A7.62,7.62,0,0,0,706.83,753.67Z"/><path class="cls-2" d="M397.89,572.23a9.61,9.61,0,0,0,5.24-1.31c7.61-4.42,15.28-8.72,22.86-13.17,4.22-2.48,4.26-4.16.07-6.69-7.25-4.37-14.6-8.57-21.93-12.81a9.83,9.83,0,0,0-10.4-.13c-7.92,4.53-15.81,9.1-23.73,13.63-3.34,1.91-3.32,3.93-.1,5.84,7.71,4.57,15.49,9,23.21,13.59A9.81,9.81,0,0,0,397.89,572.23Z"/><path class="cls-2" d="M840.32,779.89a9.78,9.78,0,0,0,5.63-1.58c7.45-4.31,15-8.5,22.42-12.82,4.49-2.61,4.51-4.27.08-6.91-7.25-4.32-14.55-8.54-21.86-12.76a9.85,9.85,0,0,0-10.39-.06c-7.62,4.34-15.27,8.64-22.82,13.08-4.52,2.66-4.53,4.31-.16,6.91,7,4.15,14,8.19,21,12.31C836.14,779.16,838,780.17,840.32,779.89Z"/><path class="cls-4" d="M924.45,752.69a1.72,1.72,0,0,0-1.74-1l-3.3.13h0C920.67,754.56,922.13,756.1,924.45,752.69Z"/><path class="cls-4" d="M26.84,763.56c-.11.26-.17.65-.35.73s-.5-.19-.76-.3c.11-.26.17-.66.36-.73S26.59,763.44,26.84,763.56Z"/><path class="cls-4" d="M29,758.85l-.26.31c-.07-.12-.19-.25-.18-.36s.16-.21.24-.31Z"/><path class="cls-4" d="M919.41,751.83l-.22-.39.23.38Z"/><path class="cls-2" d="M191,738.65a4.47,4.47,0,0,0,2.38,4.93q34.29,19.77,68.49,39.7,31,18,62,36.06c12.18,7.1,24.32,14.26,36.5,21.35a8.62,8.62,0,0,0,9,0q32.29-18.29,64.58-36.6c6.91-3.91,14-7.58,20.75-11.69,5.72-3.46,5.9-7.8.39-11.67-5-3.52-10.41-6.52-15.73-9.59-22.58-13-45.22-25.94-67.77-39-14.19-8.23-28.1-16.94-42.39-25-12.85-7.23-25.67-14.48-38.26-22.17-4.16-2.54-8.25-2.67-13,.12-21.34,12.45-43,24.39-64.49,36.55-6.5,3.68-12.94,7.48-19.43,11.17A5.36,5.36,0,0,0,191,738.65Z"/><path class="cls-4" d="M642.66,165.39l-.37.2.36-.21Z"/><path class="cls-2" d="M671.84,623,539.26,545.31a3.91,3.91,0,0,1-.27-6.57l5-3.51,140,82-8,5.56A3.87,3.87,0,0,1,671.84,623Z"/><path class="cls-5" d="M801,239.83l.27-.1,0,0Z"/><path class="cls-3" d="M964.72,292.62,394.93,9.62a15.88,15.88,0,0,0-20.67,6A15.63,15.63,0,0,0,372,23.83V418.07a15.85,15.85,0,0,0,7.93,13.74L929.45,749.2a15.85,15.85,0,0,0,23.78-13l20.28-428.63A15.86,15.86,0,0,0,964.72,292.62ZM941.14,594.28q-1.17,28.89-2.32,57.77-1.49,36.32-3,72.63a9.37,9.37,0,0,1-2.38,6.37l-.13.14a6.84,6.84,0,0,1-6.7,2.45,13.42,13.42,0,0,1-2.87-.88,6.87,6.87,0,0,1-4.2-2,.6.6,0,0,1-.73-.36l-3-1.79a21.76,21.76,0,0,1-2.26-1Q792.34,657.3,671.07,587,539.2,510.55,407.24,434.29c-11.51-6.65-16.8-16.37-16.77-29.24q.39-160.8.89-321.61c0-13.31,0-26.63.15-39.95a15.75,15.75,0,0,1,.28-2.93c1-5.1,4.38-7.82,9.17-7a27.94,27.94,0,0,1,7,2.59q17.71,8.52,35.36,17.2,37.05,18.18,74.09,36.43l4.82,2.4,2,1,1.3.62-.21.29.24-.26,6.73,3.3h0l1.3.51.13.07L548.39,105l-.09-.06c11.22,4.93,22.19,10.39,33,16.08l-.07,0a132,132,0,0,1,16.17,7.9l0,0,16.12,7.79.12,0L626.3,143l-.06,0c11.16,4.92,22.06,10.37,32.86,16a2.2,2.2,0,0,1,2,1l38.28,18.46.27.13L712.26,185l-.07-.05L741.14,199l3.93,2,34.18,16.48.23.15,9.88,4.84.24.09c2.84,1.44,5.67,2.89,8.51,4.32a69.12,69.12,0,0,1,12.13,5.85h0a.65.65,0,0,1,.68.38l1,.37,64.06,31.46-.08-.05,1.23.38a.4.4,0,0,1,.53.25l10.55,5.37a.47.47,0,0,1,.64.21l19.32,9.36.17.05,8.63,4.4-.08,0,3.22,1.4a.39.39,0,0,1,.48.24l4.43,2.33-.05,0c5.46,2.37,11,4.52,15.87,8.12,7.84,5.83,11.94,13.73,11.69,23.4-.39,15.57-1.3,31.12-2,46.68.75,6.37-1.11,12.6-1,18.93.11,14.27-1.07,28.48-1.61,42.72-.67,17.73-1,35.48-2.32,53.19Z"/><path class="cls-2" d="M955.72,299.62l-569.79-283a15.64,15.64,0,0,0-11.67-1A15.81,15.81,0,0,0,363,30.83V425.07a15.85,15.85,0,0,0,7.93,13.74L920.45,756.2a15.83,15.83,0,0,0,23.78-13l20.28-428.63A15.86,15.86,0,0,0,955.72,299.62ZM382.36,90.44c0-13.31,0-26.63.15-39.95.07-6.89,3.73-10.82,9.28-9.93l.17,0a27.94,27.94,0,0,1,7,2.59q17.71,8.52,35.36,17.2,37.05,18.18,74.09,36.43l4.82,2.4,2,1,1.3.62-.21.29.24-.26,6.73,3.3h0l1.3.51.13.07L539.39,112l-.09-.06c11.22,4.93,22.19,10.39,33,16.08l-.07-.05a132,132,0,0,1,16.17,7.9l0,0,16.12,7.79.12,0L617.3,150l-.06,0c11.16,4.92,22.06,10.37,32.86,16a2.2,2.2,0,0,1,2,1l38.28,18.46.27.13L703.26,192l-.07-.05L732.14,206l3.93,2,34.18,16.48.23.15,9.88,4.84.24.09c2.84,1.44,5.67,2.89,8.51,4.32a69.12,69.12,0,0,1,12.13,5.85h0a.65.65,0,0,1,.68.38l1,.37,64.06,31.46-.08-.05,1.23.38a.4.4,0,0,1,.53.25l10.55,5.37a.47.47,0,0,1,.64.21l19.32,9.36.17.05,8.63,4.4-.08,0,3.22,1.4a.39.39,0,0,1,.48.24l4.43,2.33-.05,0c5.46,2.37,11,4.52,15.87,8.12,7.84,5.83,11.94,13.73,11.69,23.4-.39,15.57-1.3,31.12-2,46.68.75,6.37-1.11,12.6-1,18.93.11,14.27-1.07,28.48-1.61,42.72-.67,17.73-1,35.48-2.32,53.19l-4.56,112.46q-1.17,28.89-2.32,57.77-1.49,36.32-3,72.63a13.83,13.83,0,0,1-.21,2,8.51,8.51,0,0,1-2.17,4.41l-.13.14c-2.76,3.14-6.05,3.07-9.57,1.57a6.87,6.87,0,0,1-4.2-2,.6.6,0,0,1-.73-.36l-3-1.79a21.76,21.76,0,0,1-2.26-1Q783.34,664.3,662.07,594,530.2,517.55,398.24,441.29c-11.51-6.65-16.8-16.37-16.77-29.24Q381.86,251.25,382.36,90.44Z"/><path class="cls-6" d="M940.63,392.91c.11,14.27-1.07,28.48-1.61,42.72-.67,17.73-1,35.48-2.32,53.19l-4.56,112.46q-1.17,28.89-2.32,57.77-1.49,36.32-3,72.63a13.83,13.83,0,0,1-.21,2,13.42,13.42,0,0,1-2.87-.88,6.87,6.87,0,0,1-4.2-2,.6.6,0,0,1-.73-.36l-3-1.79a21.76,21.76,0,0,1-2.26-1Q792.34,657.3,671.07,587,539.2,510.55,407.24,434.29c-11.51-6.65-16.8-16.37-16.77-29.24q.39-160.8.89-321.61c0-13.31,0-26.63.15-39.95a15.75,15.75,0,0,1,.28-2.93l.17,0a27.94,27.94,0,0,1,7,2.59q17.71,8.52,35.36,17.2,37.05,18.18,74.09,36.43l4.82,2.4,2,1,1.3.62-.21.29.24-.26,6.73,3.3h0l1.3.51.13.07L539.39,112l-.09-.06c11.22,4.93,22.19,10.39,33,16.08l-.07-.05a132,132,0,0,1,16.17,7.9l0,0,16.12,7.79.12,0L617.3,150l-.06,0c11.16,4.92,22.06,10.37,32.86,16a2.2,2.2,0,0,1,2,1l38.28,18.46.27.13L703.26,192l-.07-.05L732.14,206l3.93,2,34.18,16.48.23.15,9.88,4.84.24.09c2.84,1.44,5.67,2.89,8.51,4.32a69.12,69.12,0,0,1,12.13,5.85h0a.65.65,0,0,1,.68.38l1,.37,64.06,31.46-.08-.05,1.23.38a.4.4,0,0,1,.53.25l10.55,5.37a.47.47,0,0,1,.64.21l19.32,9.36.17.05,8.63,4.4-.08,0,3.22,1.4a.39.39,0,0,1,.48.24l4.43,2.33-.05,0c5.46,2.37,11,4.52,15.87,8.12,7.84,5.83,11.94,13.73,11.69,23.4-.39,15.57-1.3,31.12-2,46.68C942.37,380.35,940.51,386.58,940.63,392.91Z"/></svg>