<svg id="Laag_1" data-name="Laag 1" xmlns="http://www.w3.org/2000/svg" viewBox="0 0 210.48 209.23"><defs><style>.cls-1{fill:#679db2;}.cls-2{fill:#ea5481;}</style></defs><title>logo</title><path class="cls-1" d="M105.24,13.31v35A56.34,56.34,0,1,1,63.13,142L37,165.25A91.31,91.31,0,1,0,105.24,13.31Z"/><path class="cls-2" d="M105.24,13.31v35A56.33,56.33,0,0,0,63.13,142L37,165.25A91.31,91.31,0,0,1,105.24,13.31Z"/><path class="cls-2" d="M130.64,73.58q-6.46-6.73-19.83-6.74H93.3V78.25h15q8.1,0,11.21,3.36a11.45,11.45,0,0,1,3.11,8A10.86,10.86,0,0,1,119.31,98q-3.36,3.14-9.73,3.13H93.3v11.8h19.07q10.74,0,17.74-6.49t7-16.94A22.28,22.28,0,0,0,130.64,73.58Z"/><rect class="cls-1" x="79.54" y="66.84" width="13.76" height="76.35"/></svg>