<svg id="Laag_1" data-name="Laag 1" xmlns="http://www.w3.org/2000/svg" viewBox="0 0 252.29 247.55"><defs><style>.cls-1{fill:#1a73b7;}.cls-2{fill:#38a9dd;}.cls-3{fill:#e9eaeb;}.cls-4{fill:#ebebeb;}.cls-5{fill:#49abdc;}.cls-6{fill:#fff;}</style></defs><title>css</title><path class="cls-1" d="M126.27,26.06c27.18,0,54.36.08,81.54-.1,3.81,0,4.76.95,4.4,4.69q-4.5,47.48-8.7,95c-2.14,23.91-4.29,47.82-6.19,71.75-.29,3.71-1.34,5.37-5.11,6.37-20.92,5.58-41.76,11.47-62.61,17.32a11.82,11.82,0,0,1-6.72.07c-21.15-6-42.32-11.93-63.55-17.62-3.25-.87-4-2.34-4.31-5.4-2.85-32.82-5.85-65.63-8.79-98.45-2-22.92-4-45.85-6.15-68.76-.37-3.91.66-5,4.64-4.94C71.9,26.14,99.09,26.06,126.27,26.06Zm-24.5,78.35c-2.17,7.23.31,14.26,1,21.37,6.16,1.66,12.44.57,18.65.64,3.53,0,4.51,1.2,4.43,4.59-.2,9.75-.1,19.51-.12,29.26-5.11-1.31-10.25-2.57-15.35-4-7.89-2.13-7.88-2.17-8.82-10.49-.24-2.14-.67-4.27-.7-6.41s-1.1-2.8-3.11-2.77c-5.13.08-10.27.19-15.4,0-3.14-.13-3.54,1.27-3.28,3.88.87,8.56,1.75,17.12,2.34,25.7.23,3.47,1.53,5.06,5,6,13.42,3.54,26.74,7.44,40.1,11.21-1.38,6.39-.52,12.87-.69,19.3-.09,3.77,2.4,3.91,5.09,3.17,16.22-4.49,32.42-9.08,48.65-13.54,2.55-.7,3.79-1.77,4-4.69.47-8.06,1.33-16.1,2.08-24.15,1.57-16.9,3.19-33.8,4.74-50.7.84-9.2,1.57-18.4,2.38-27.6q1.77-19.95,3.63-39.89c.29-3.08-.54-4.46-4-4.44q-31.06.2-62.13,0c-3.64,0-4.54,1.6-4.47,4.83.1,5-.06,9.93-.11,14.9-1.82.06-3.63.16-5.45.16-14.56,0-29.12.14-43.67-.09-4-.06-4.66,1.15-4,4.84.88,5.37,1.1,10.84,1.6,16.27,1.4,1.79,3.38,1,5.08,1,14.07.07,28.14.14,42.21,0,3.47,0,4.72,1,4.49,4.5a84.54,84.54,0,0,0,0,11.91c.28,3.79-1.18,4.76-4.82,4.76C114.59,103.86,108.14,103,101.77,104.41Z"/><path class="cls-2" d="M125.59,60.57c0-5,.21-9.94.11-14.9-.07-3.23.83-4.85,4.47-4.83q31.07.16,62.13,0c3.46,0,4.29,1.36,4,4.44q-1.89,19.93-3.63,39.89c-.81,9.2-1.54,18.4-2.38,27.6-1.55,16.9-3.17,33.8-4.74,50.7-.75,8-1.61,16.09-2.08,24.15-.17,2.92-1.41,4-4,4.69-16.23,4.46-32.43,9-48.65,13.54-2.69.74-5.18.6-5.09-3.17.17-6.43-.69-12.91.7-19.3l1.23-1c13.38-3.63,26.74-7.32,40.15-10.83,2-.53,2.6-1.48,2.77-3.38.46-5.26,1.17-10.5,1.64-15.76,2.64-29.29,5.21-58.58,7.9-87.86.26-2.81-.41-3.79-3.35-3.76-16.72.16-33.44.16-50.16.22Z"/><path class="cls-3" d="M127.7,182.33l-1.23,1c-13.37-3.77-26.69-7.67-40.11-11.21-3.47-.91-4.77-2.5-5-6-.59-8.58-1.47-17.14-2.34-25.7-.26-2.61.14-4,3.28-3.88,5.13.23,10.27.12,15.4,0,2,0,3.07.54,3.11,2.77s.46,4.27.7,6.41c.94,8.32.93,8.36,8.82,10.49,5.1,1.38,10.24,2.64,15.35,4l1,.31c0,3.11-.25,6.24,0,9.32C127,174.05,125.4,178.36,127.7,182.33Z"/><path class="cls-4" d="M125.59,60.57l1.06.39,0,20.87L74,81.75c-.5-5.43-.72-10.9-1.6-16.27-.61-3.69,0-4.9,4-4.84,14.55.23,29.11.1,43.67.09C122,60.73,123.77,60.63,125.59,60.57Z"/><path class="cls-2" d="M126.67,160.58l-1-.31c0-9.75-.08-19.51.12-29.26.08-3.39-.9-4.54-4.43-4.59-6.21-.07-12.49,1-18.65-.64l23-.23c7.6.08,15.19.29,22.78.18,3.17,0,4.53.75,4.11,4.19-.82,6.71-1.62,13.44-1.86,20.18-.12,3.39-1.59,4.49-4.47,5.21C139.68,157,133.19,158.81,126.67,160.58Z"/><path class="cls-5" d="M74,81.75l52.6.08c8.08.06,16.18.46,24.24,0,5.1-.27,6.27,1.6,5.6,6.16a99.41,99.41,0,0,0-1.06,12.3c-.08,3.53-1.67,4.36-4.93,4.31-8.25-.12-16.49.08-24.74.16l-24-.39c6.37-1.4,12.82-.55,19.22-.55,3.64,0,5.1-1,4.82-4.76a84.54,84.54,0,0,1,0-11.91c.23-3.49-1-4.55-4.49-4.5-14.07.17-28.14.1-42.21,0C77.4,82.71,75.42,83.54,74,81.75Z"/><path class="cls-4" d="M101.77,104.41l24,.39a49.37,49.37,0,0,1-.06,20.75l-23,.23C102.08,118.67,99.6,111.64,101.77,104.41Z"/><path class="cls-6" d="M125.67,125.55a49.37,49.37,0,0,0,.06-20.75c8.25-.08,16.49-.28,24.74-.16,3.26,0,4.85-.78,4.93-4.31A99.41,99.41,0,0,1,156.46,88c.67-4.56-.5-6.43-5.6-6.16-8.06.42-16.16,0-24.24,0l0-20.87c16.72-.06,33.44-.06,50.16-.22,2.94,0,3.61.95,3.35,3.76-2.69,29.28-5.26,58.57-7.9,87.86-.47,5.26-1.18,10.5-1.64,15.76-.17,1.9-.75,2.85-2.77,3.38-13.41,3.51-26.77,7.2-40.15,10.83-2.3-4-.67-8.28-1-12.43-.26-3.08,0-6.21,0-9.32,6.52-1.77,13-3.63,19.56-5.27,2.88-.72,4.35-1.82,4.47-5.21.24-6.74,1-13.47,1.86-20.18.42-3.44-.94-4.23-4.11-4.19C140.86,125.84,133.27,125.63,125.67,125.55Z"/></svg>