<svg id="Laag_1" data-name="Laag 1" xmlns="http://www.w3.org/2000/svg" viewBox="0 0 227.26 232.29"><defs><style>.cls-1{fill:#80ceeb;}</style></defs><title>electron</title><path class="cls-1" d="M35.54,159.58A12,12,0,0,1,40.22,150a1.86,1.86,0,0,0,.75-1.62c-.15-8.05,2.69-15.24,6.53-22.11A90.87,90.87,0,0,1,62,107.35,142.24,142.24,0,0,1,93.53,83.24,145.87,145.87,0,0,1,122.9,70.32q4.65-1.44,9.39-2.49c2.43-.54,4.53.6,5,2.71.49,2.3-.77,4.17-3.27,4.73a128.37,128.37,0,0,0-29.85,10.9,141.77,141.77,0,0,0-30.47,20.58c-7.15,6.39-13.62,13.37-18.61,21.61-3.22,5.32-5.69,10.93-6.46,17.17-.13,1.07-.26,1.81,1.34,2.08a12.26,12.26,0,0,1-.66,24.21A12.12,12.12,0,0,1,35.54,159.58Zm12.23,4.68a4.49,4.49,0,0,0,4.58-4.6,4.61,4.61,0,0,0-4.6-4.64,4.51,4.51,0,0,0-4.62,4.72A4.41,4.41,0,0,0,47.77,164.26Z"/><path class="cls-1" d="M155.76,120.26a139.81,139.81,0,0,1-5.89,41.88,3.78,3.78,0,0,1-3.12,2.82,3.65,3.65,0,0,1-3.65-1.59,3.72,3.72,0,0,1-.45-3.59,127.51,127.51,0,0,0,3.73-16.28q1.05-6.85,1.52-13.78a139.08,139.08,0,0,0,.21-14.58c-.56-14.37-2.86-28.42-8.18-41.86-2.81-7.08-6.47-13.67-11.83-19.19-1-1.06-2.26-1.91-3.35-2.92-.7-.65-1.17-.56-1.77.15a12.09,12.09,0,0,1-6.83,4.08C109,57,101.84,51.31,101.53,44a12.21,12.21,0,0,1,11.74-12.93,11.94,11.94,0,0,1,12.36,9.74A4.41,4.41,0,0,0,127.76,44c5.79,3.69,9.93,8.94,13.44,14.73,6,9.9,9.45,20.76,11.76,32a143.4,143.4,0,0,1,2.55,20C155.7,114,155.63,117.19,155.76,120.26ZM113.74,48a4.62,4.62,0,0,0,4.62-4.62,4.51,4.51,0,0,0-4.72-4.62,4.38,4.38,0,0,0-4.5,4.51A4.51,4.51,0,0,0,113.74,48Z"/><path class="cls-1" d="M191.72,159.62a12.23,12.23,0,0,1-12,12.38,11.27,11.27,0,0,1-5.22-1.17,2.44,2.44,0,0,0-2.4,0,42.21,42.21,0,0,1-14.93,3.91c-13.55,1.16-26.5-1.64-39.18-6.06A147.53,147.53,0,0,1,87.79,154a140.73,140.73,0,0,1-27-21.86q-.93-1-1.8-2a3.69,3.69,0,0,1,.38-5.22,3.73,3.73,0,0,1,5.14,0c.82.77,1.51,1.67,2.3,2.47a132.28,132.28,0,0,0,23.63,19.22,138,138,0,0,0,40.42,18,89.85,89.85,0,0,0,17,2.66,49.92,49.92,0,0,0,16.82-1.7l.64-.2c2.74-.89,2.74-.89,2.16-3.67-1.44-6.92,4.36-14,11.42-14.31a12.28,12.28,0,0,1,12.63,9.78A14.07,14.07,0,0,1,191.72,159.62Zm-12.16,4.64a4.38,4.38,0,0,0,4.58-4.59,4.49,4.49,0,0,0-4.57-4.65,4.62,4.62,0,1,0,0,9.24Z"/><path class="cls-1" d="M48.47,90.78a37.81,37.81,0,0,0,4.73,18.27c.79,1.53,2,3,1.31,4.89a3.71,3.71,0,0,1-3.12,2.64,3.36,3.36,0,0,1-3.54-1.51c-4-6.83-6.91-14.09-7.05-22.12-.21-11,6-20.06,16.26-24.13a48.31,48.31,0,0,1,16.59-3.28,86.41,86.41,0,0,1,17.59,1.39,4,4,0,0,1,3.28,4.15,3.74,3.74,0,0,1-3.86,3.38c-2.51-.21-5-.71-7.49-.95-8.56-.82-17-.72-24.94,3.27C51.79,80,48.4,85.28,48.47,90.78Z"/><path class="cls-1" d="M186.55,92.66a41.71,41.71,0,0,1-4.36,17.52,82.58,82.58,0,0,1-11.26,17.25,3.85,3.85,0,0,1-5.34.63,3.7,3.7,0,0,1-.78-5.17c1.47-2,3.14-3.94,4.59-6,4.23-6,7.77-12.43,9.1-19.83,1.87-10.38-2.64-18.15-12.63-21.61a39.09,39.09,0,0,0-13-2.12,4.25,4.25,0,0,1-3.87-1.8,3.79,3.79,0,0,1,3.08-5.91c8.91.13,17.49,1.61,24.85,7.15A23.48,23.48,0,0,1,186.32,89,29.36,29.36,0,0,1,186.55,92.66Z"/><path class="cls-1" d="M113.76,201.25c-6.61-.06-12.24-2.62-17.21-6.81C89.67,188.63,85.23,181.1,81.61,173c-.87-1.92-1.59-3.91-2.36-5.88-1-2.51-.17-4.77,2-5.53s4.21.31,5.18,2.93c2.53,6.88,5.65,13.45,10.32,19.17,3.43,4.22,7.39,7.77,12.8,9.26a16.2,16.2,0,0,0,13.09-2c5.29-3.17,8.93-7.89,12.13-13a3.9,3.9,0,0,1,3-2.1,3.55,3.55,0,0,1,3.61,1.63,3.85,3.85,0,0,1,0,4.22,52,52,0,0,1-5.47,7.69c-4.13,4.78-8.85,8.73-15,10.69A22.84,22.84,0,0,1,113.76,201.25Z"/><path class="cls-1" d="M113.6,129.64a9.3,9.3,0,0,1,.09-18.6,9.22,9.22,0,0,1,9.28,9.51A9.12,9.12,0,0,1,113.6,129.64Z"/></svg>