<svg id="Laag_1" data-name="Laag 1" xmlns="http://www.w3.org/2000/svg" viewBox="0 0 200.03 190.65"><title>eye</title><path d="M6.24,95c2.43-2.79,4.79-5.65,7.31-8.35,14.84-15.95,32.17-28.3,52.68-35.87a93.75,93.75,0,0,1,42-5.83A108.52,108.52,0,0,1,151.1,58.8a143.09,143.09,0,0,1,39.16,32.27c1.14,1.35,2.2,2.76,3.53,4.45-3.38,3.8-6.62,7.76-10.18,11.39a138.1,138.1,0,0,1-42,29.75c-14,6.32-28.62,9.87-44.05,9.43A101.54,101.54,0,0,1,56.81,136,141,141,0,0,1,9.53,99.56L6.24,95.71ZM75.57,69.35c-1.38-1.54-2.86-3-4.1-4.64-.92-1.22-1.75-1.25-3.08-.71a124.25,124.25,0,0,0-38,24.48C28,90.66,25.8,93,23.53,95.26c7.94,10.6,37.44,30.8,45.83,31.43C56,113.45,54.4,95.86,57.58,85.07l8,1.35A35,35,0,0,0,69,112.66a34.2,34.2,0,0,0,20.69,16.63c16.29,4.79,32.74-2,41.2-16.65,7.83-13.59,5-31.78-6.18-42.72A36,36,0,0,0,75.57,69.35Zm55-5.53c16.21,15.46,18.69,44.75-.06,63,10.86-2.35,40.3-22.7,45.77-31.67C163.24,81.53,148.31,70.66,130.57,63.82Z"/><path d="M77.46,88.42l17.59,3-11.46-13c7.11-8,21.15-9,30.3-2.14a23.66,23.66,0,0,1-24.81,40.13C78.19,110.79,74,98.17,77.46,88.42Z"/></svg>