<svg id="Laag_1" data-name="Laag 1" xmlns="http://www.w3.org/2000/svg" viewBox="0 0 267 264.58"><title>finished</title><path d="M238.9,124.16v9.48c-.06.41-.16.83-.18,1.25a99.81,99.81,0,0,1-5.35,27.75q-14.51,41.51-53.85,61.17a100.14,100.14,0,0,1-34.66,9.95c-2.2.23-4.41.42-6.61.63h-9.46c-2.21-.21-4.42-.41-6.62-.63A101.1,101.1,0,0,1,97,227.86a105.7,105.7,0,0,1-68.57-91.38,103,103,0,0,1,2.1-29.82A105.72,105.72,0,0,1,94.26,31,102.28,102.28,0,0,1,122.17,24c2.2-.22,4.41-.42,6.62-.63h9.46c.46.07.91.17,1.37.2a94.7,94.7,0,0,1,21.88,3.57Q207,40.41,228.29,82.77a99.51,99.51,0,0,1,10,34.78C238.5,119.76,238.69,122,238.9,124.16ZM44.31,128.9a89.19,89.19,0,1,0,178.38,0c0-49.12-40-89.21-89-89.25A89.42,89.42,0,0,0,44.31,128.9Z"/><path d="M179.6,90.74l11.33,11.4q-35.15,35.08-70.47,70.39L76.19,128.15l11.26-11.27L120.36,150Z"/></svg>