<svg id="Laag_1" data-name="Laag 1" xmlns="http://www.w3.org/2000/svg" viewBox="0 0 227.26 232.29"><defs><style>.cls-1{fill:#f6de1c;}.cls-2{fill:#080900;}</style></defs><title>javascript</title><path class="cls-1" d="M191.51,58.24V175.42c-1.62,3-2.36,6.31-4.42,9.1-3.78,5.1-9,7.78-14.88,9.51H55c-.76-1.06-2-.92-3.07-1.29a23,23,0,0,1-15.51-21.5q-.09-54.79,0-109.58A22.82,22.82,0,0,1,59.13,39q54.79-.16,109.58,0a22.83,22.83,0,0,1,22.13,17.81C191,57.33,190.86,58,191.51,58.24ZM148.79,172.73a26.33,26.33,0,0,0,8.21-.79c7.87-1.95,14-6.15,15.73-14.48,1.83-8.7-.13-16.42-7.75-22a66,66,0,0,0-13.35-7,34.48,34.48,0,0,1-7.63-3.88,6.34,6.34,0,0,1-2.61-7,6.13,6.13,0,0,1,5.33-4.73,8.9,8.9,0,0,1,9.67,4.42c1,1.66,1.78,1.58,3.17.59a69.25,69.25,0,0,1,7.21-4.66c2-1.06,1.81-2,.72-3.63-5-7.52-12.23-9.73-20.8-9.48-13.81.39-22.64,12.35-18.85,25.66,2,6.9,7,10.76,13,13.73,4.4,2.18,9,4,13.33,6.27,3,1.55,5.11,3.95,4.43,7.72-.61,3.35-3.32,5.47-7.45,6-6.38.84-11.58-1.22-15.22-6.53-1.22-1.79-2-1.89-3.73-.77a49.46,49.46,0,0,1-7.42,4.29c-2.52,1.11-2.1,2.27-.86,4.06C130,169.37,138.62,172.62,148.79,172.73Zm-33.87-45.17c0-8.15-.06-16.3,0-24.44,0-2-.41-2.91-2.64-2.77a63.51,63.51,0,0,1-8.94,0c-2.52-.19-3,.77-3,3.09.1,15.14.06,30.29,0,45.44a35.54,35.54,0,0,1-.22,4.12c-.37,3-1.42,5.72-4.71,6.46s-6.58.46-9.18-2.35c-1.35-1.45-1.73-4.37-3.86-4.3-1.85,0-3.65,1.72-5.46,2.68a23.15,23.15,0,0,1-3.32,1.78c-2.61.88-2.16,2.16-1,4.05A21.48,21.48,0,0,0,90.3,171.8c13.88,1,24.39-4.78,24.6-21.52C115,142.7,114.92,135.13,114.92,127.56Z"/><path class="cls-2" d="M148.79,172.73c-10.17-.11-18.81-3.36-24.82-12.09-1.24-1.79-1.66-2.95.86-4.06a49.46,49.46,0,0,0,7.42-4.29c1.68-1.12,2.51-1,3.73.77,3.64,5.31,8.84,7.37,15.22,6.53,4.13-.54,6.84-2.66,7.45-6,.68-3.77-1.4-6.17-4.43-7.72-4.37-2.24-8.93-4.09-13.33-6.27-6-3-11.09-6.83-13-13.73-3.79-13.31,5-25.27,18.85-25.66,8.57-.25,15.82,2,20.8,9.48,1.09,1.64,1.24,2.57-.72,3.63a69.25,69.25,0,0,0-7.21,4.66c-1.39,1-2.15,1.07-3.17-.59a8.9,8.9,0,0,0-9.67-4.42,6.13,6.13,0,0,0-5.33,4.73,6.34,6.34,0,0,0,2.61,7,34.48,34.48,0,0,0,7.63,3.88,66,66,0,0,1,13.35,7c7.62,5.54,9.58,13.26,7.75,22C171,165.79,164.87,170,157,171.94A26.33,26.33,0,0,1,148.79,172.73Z"/><path class="cls-2" d="M114.92,127.56c0,7.57.08,15.14,0,22.72-.21,16.74-10.72,22.52-24.6,21.52a21.48,21.48,0,0,1-17.59-10.49c-1.17-1.89-1.62-3.17,1-4.05A23.15,23.15,0,0,0,77,155.48c1.81-1,3.61-2.63,5.46-2.68,2.13-.07,2.51,2.85,3.86,4.3,2.6,2.81,5.82,3.1,9.18,2.35s4.34-3.45,4.71-6.46a35.54,35.54,0,0,0,.22-4.12c0-15.15,0-30.3,0-45.44,0-2.32.46-3.28,3-3.09a63.51,63.51,0,0,0,8.94,0c2.23-.14,2.67.73,2.64,2.77C114.86,111.26,114.92,119.41,114.92,127.56Z"/></svg>