<svg id="Laag_1" data-name="Laag 1" xmlns="http://www.w3.org/2000/svg" viewBox="0 0 227.26 232.29"><defs><style>.cls-1{fill:#e73a2f;}.cls-2{fill:#fffffe;}.cls-3{fill:#fff;}</style></defs><title>laravel</title><path class="cls-1" d="M49.54,60a4.46,4.46,0,0,1,2.14-2Q65,50.39,78.25,42.73a2.53,2.53,0,0,1,2.77,0l27.29,15.71A2.69,2.69,0,0,1,109.74,61q0,29.07,0,58.15v.73c.27,0,.43-.14.61-.24q11-6.31,21.94-12.61a1.06,1.06,0,0,0,.6-1.08c0-9.77,0-19.55,0-29.32a2.62,2.62,0,0,1,1.44-2.5q13.6-7.82,27.19-15.66a2.67,2.67,0,0,1,2.93,0l27.14,15.62a2.72,2.72,0,0,1,1.5,2.59q0,15.48,0,31a2.71,2.71,0,0,1-1.51,2.59q-12.9,7.4-25.79,14.82a.89.89,0,0,0-.5.9c0,9.77,0,19.54,0,29.32a2.78,2.78,0,0,1-1.54,2.68q-27.41,15.76-54.8,31.55a2.8,2.8,0,0,1-3.09,0q-27.28-15.74-54.59-31.43a4,4,0,0,1-1.72-1.74ZM105.08,183.7v-.78q0-12.55,0-25.1a1.11,1.11,0,0,0-.64-1.13c-8.45-4.75-16.87-9.55-25.33-14.29a3.2,3.2,0,0,1-1.82-3.14q.06-30.25,0-60.51a2.94,2.94,0,0,1,0-.42.56.56,0,0,0-.36-.61L54.62,64.85c-.34-.2-.51-.2-.46.26,0,.09,0,.2,0,.3q0,44.13,0,88.26a1.07,1.07,0,0,0,.61,1.08q22.58,13,45.12,26ZM160.65,128l-.41.21q-25,14.28-50.06,28.56a.8.8,0,0,0-.46.8q0,12.77,0,25.52a.79.79,0,0,0,.07.52,4.42,4.42,0,0,0,.44-.23l50-28.75a.83.83,0,0,0,.46-.85q0-12.59,0-25.16Zm-2.36-4-.46-.28q-11.12-6.4-22.23-12.82a.78.78,0,0,0-.92.07l-49.84,28.7c-.16.09-.36.13-.45.35l.47.27,22,12.47a.92.92,0,0,0,1.07,0q24.18-13.83,48.38-27.63ZM81.94,136l.49-.26q11.08-6.37,22.19-12.76a.88.88,0,0,0,.47-.91q0-28.35,0-56.71a1.23,1.23,0,0,0-.08-.67l-.52.28q-11,6.33-22,12.67a.89.89,0,0,0-.52.89q0,28.41,0,56.82Zm57.9-59.68.31.19Q151.37,83,162.59,89.44a.73.73,0,0,0,.86-.08l21.81-12.57a2.19,2.19,0,0,0,.75-.5l-.26-.17q-11.22-6.47-22.44-12.94c-.34-.2-.55-.07-.81.08l-10.93,6.29ZM56.61,60.54c.06.21.21.24.33.31q11.15,6.42,22.28,12.84a.75.75,0,0,0,.87,0q11.09-6.41,22.18-12.78c.14-.09.36-.1.37-.35l-.46-.28q-11-6.31-22-12.66a1,1,0,0,0-1.14,0q-10.56,6.1-21.14,12.18Zm80.9,19.78c0,.19,0,.27,0,.34q0,12.8,0,25.59a.71.71,0,0,0,.45.69l22.24,12.79c.14.08.27.26.48.15,0,0,0-.08,0-.12q0-12.83,0-25.65a.77.77,0,0,0-.47-.74l-16.41-9.43Zm50.89.05-.26.11Q176.89,87,165.64,93.42a.74.74,0,0,0-.38.78q0,12.6,0,25.22a.76.76,0,0,0,.08.54l.35-.2Q176.83,113.37,188,107a.85.85,0,0,0,.46-.86q0-12.59,0-25.16Z"/><path class="cls-2" d="M105.08,183.7l-5.2-3q-22.54-13-45.12-26a1.07,1.07,0,0,1-.61-1.08q0-44.13,0-88.26c0-.1,0-.21,0-.3,0-.46.12-.46.46-.26L77,77.72a.56.56,0,0,1,.36.61,2.94,2.94,0,0,0,0,.42q0,30.25,0,60.51a3.2,3.2,0,0,0,1.82,3.14c8.46,4.74,16.88,9.54,25.33,14.29a1.11,1.11,0,0,1,.64,1.13q0,12.54,0,25.1Z"/><path class="cls-2" d="M160.65,128v.62q0,12.57,0,25.16a.83.83,0,0,1-.46.85l-50,28.75a4.42,4.42,0,0,1-.44.23.79.79,0,0,1-.07-.52q0-12.76,0-25.52a.8.8,0,0,1,.46-.8q25-14.27,50.06-28.56Z"/><path class="cls-2" d="M158.29,124l-2,1.12Q132.14,139,108,152.77a.92.92,0,0,1-1.07,0l-22-12.47-.47-.27c.09-.22.29-.26.45-.35L134.68,111a.78.78,0,0,1,.92-.07q11.1,6.43,22.23,12.82Z"/><path class="cls-3" d="M81.94,136v-.65q0-28.41,0-56.82a.89.89,0,0,1,.52-.89q11-6.31,22-12.67l.52-.28a1.23,1.23,0,0,1,.08.67q0,28.37,0,56.71a.88.88,0,0,1-.47.91q-11.12,6.36-22.19,12.76Z"/><path class="cls-2" d="M139.84,76.31l11.73-6.76,10.93-6.29c.26-.15.47-.28.81-.08q11.2,6.48,22.44,12.94l.26.17a2.19,2.19,0,0,1-.75.5L163.45,89.36a.73.73,0,0,1-.86.08Q151.39,83,140.15,76.5Z"/><path class="cls-2" d="M56.61,60.54l1.32-.77q10.58-6.09,21.14-12.18a1,1,0,0,1,1.14,0q11,6.34,22,12.66l.46.28c0,.25-.23.26-.37.35Q91.19,67.27,80.09,73.66a.75.75,0,0,1-.87,0Q68.09,67.26,56.94,60.85C56.82,60.78,56.67,60.75,56.61,60.54Z"/><path class="cls-2" d="M137.51,80.32l6.27,3.62,16.41,9.43a.77.77,0,0,1,.47.74q0,12.83,0,25.65s0,.08,0,.12c-.21.11-.34-.07-.48-.15l-22.24-12.79a.71.71,0,0,1-.45-.69q0-12.8,0-25.59C137.49,80.59,137.5,80.51,137.51,80.32Z"/><path class="cls-3" d="M188.4,80.37V81q0,12.58,0,25.16a.85.85,0,0,1-.46.86q-11.13,6.38-22.25,12.78l-.35.2a.76.76,0,0,1-.08-.54q0-12.61,0-25.22a.74.74,0,0,1,.38-.78q11.27-6.45,22.5-12.94Z"/></svg>