<svg id="Laag_1" data-name="Laag 1" xmlns="http://www.w3.org/2000/svg" viewBox="0 0 227.26 232.29"><defs><style>.cls-1{fill:#fff;}.cls-2{fill:#82c181;}.cls-3{fill:#5c4238;}.cls-4{fill:#51ae52;}.cls-5{fill:#d9e7c4;}</style></defs><title>mogodb</title><path class="cls-1" d="M219,33.58l-.75-.75Q219.24,32.61,219,33.58Z"/><path class="cls-1" d="M22.93,216.8l.74.74C23,217.69,22.78,217.44,22.93,216.8Z"/><path class="cls-2" d="M202.74,51.7a38.38,38.38,0,0,0-1.84-6.14h0q-.1-.3-.24-.6a25.52,25.52,0,0,0-1.93-3.8q-.45-.76-1-1.47c-4-6.34-9.94-9.91-17-11.77q-15-3.91-30.26-6.35c-33.27-5.33-65.95-2.27-98.11,7-11.12,3.22-18,11.24-19.62,22.67-2.49,17.26-3.43,34.64-1,52,7.19,51.65,36,86.84,82.54,108.52a7,7,0,0,0,6.33,0,142.8,142.8,0,0,0,28.64-16.63c29-21.82,47.11-50.35,53.14-86.38C205.58,89.82,204.33,70.77,202.74,51.7ZM189.6,93.39c-3.19,42.27-22.91,74.38-58.77,96.71-2.32,1.44-4.89,2.49-7.14,4-4.18,2.84-7.89,2.54-12.35.07-25-13.84-44.52-32.87-56.15-59.31-6.54-14.88-10.7-32.12-10-54.56.09-9,.08-17.92,1.55-26.79.92-5.57,4.15-9.35,9.5-10.86,27.66-7.81,55.71-11.22,84.44-7.63a279.2,279.2,0,0,1,36.19,7c7,1.82,11.24,6.69,11.75,13.73C189.47,68.29,190.55,80.78,189.6,93.39Z"/><path class="cls-3" d="M45.15,80.33c.08-9,.07-17.92,1.55-26.79.92-5.56,4.15-9.35,9.5-10.86,27.66-7.81,55.71-11.21,84.44-7.63a280.9,280.9,0,0,1,36.19,7c7,1.82,11.24,6.69,11.74,13.74.9,12.51,2,25,1,37.61-3.19,42.28-22.91,74.38-58.78,96.71-2.31,1.45-4.89,2.5-7.14,4-4.17,2.84-7.89,2.54-12.35.08-25-13.85-44.51-32.88-56.14-59.32C48.65,120,44.49,102.77,45.15,80.33ZM122.43,159c10.22-8.26,17.66-18.54,21.37-31.15,5.16-17.53,2.3-34.47-5.25-50.71-5-10.76-11.49-20.56-20.8-28.2-1.76-.46-2.37,1.11-3.24,2A91.79,91.79,0,0,0,92,88.18c-8.58,27.43-.87,54.12,20.52,71.12,0,2.74.08,5.47.09,8.21,0,7.06,0,7,7.25,6.78,2-.06,2.52-.69,2.49-2.59C122.22,167.48,122.37,163.25,122.43,159Z"/><path class="cls-2" d="M112.47,159.3c-21.39-17-29.1-43.69-20.52-71.12A91.79,91.79,0,0,1,114.51,51c.87-.89,1.48-2.46,3.24-2,0,3.36,0,6.72,0,10.08q0,43.49-.08,87C115,150.11,114.66,155.06,112.47,159.3Z"/><path class="cls-4" d="M117.63,146q0-43.49.08-87c0-3.36,0-6.72,0-10.08,9.31,7.64,15.8,17.44,20.8,28.2,7.55,16.24,10.41,33.18,5.25,50.71-3.71,12.61-11.15,22.89-21.37,31.15C120.12,155,119.42,150.28,117.63,146Z"/><path class="cls-5" d="M117.63,146c1.79,4.26,2.49,8.93,4.8,13-.06,4.23-.21,8.46-.13,12.68,0,1.9-.49,2.53-2.49,2.59-7.25.19-7.24.28-7.25-6.78,0-2.74-.06-5.47-.09-8.21C114.66,155.06,115,150.11,117.63,146Z"/></svg>