<svg id="Laag_1" data-name="Laag 1" xmlns="http://www.w3.org/2000/svg" viewBox="0 0 227.26 232.29"><defs><style>.cls-1{fill:#3b75a6;}.cls-2{fill:#ffd248;}.cls-3{fill:#fff;}</style></defs><title>python</title><path class="cls-1" d="M113.87,82.19c-9.08-1.89-17.19-1-25.2-1-4.82,0-6.07-1.69-6.23-6.29-.5-14.33,2.67-18.71,17.14-21.43,11.13-2.1,22.22-2,33.1,1.68,8,2.71,12.56,7.81,12.24,16.76-.27,7.84.05,15.69-.09,23.53-.22,12.62-5.76,18.26-18.21,18.58-9.07.23-18.13.23-27.2.34-15,.19-20.27,5.65-21.24,20.84-.27,4.24,3.2,10.8-3.32,12.35-7.21,1.72-14.44.12-19.44-6.58-8-10.73-8.37-36.51-.62-47.57,4-5.69,9.56-8,16.34-8,11.18,0,22.36.07,33.54-.09C107.42,85.28,110.65,86.47,113.87,82.19Zm-17.4-8.75c2.85-1.09,5.35-2.62,4.87-6.32a4.91,4.91,0,0,0-5.53-4.64c-3.4.27-5.41,2.4-5,6C91.15,71.71,93.42,72.9,96.47,73.44Z"/><path class="cls-2" d="M113.6,149c6.84,3.36,13.21.94,19.05,2.11,4.16.83,11-3.57,12,3.78s2.48,16.15-6.66,20.68a31.42,31.42,0,0,1-9.34,3.23,110,110,0,0,1-18,1.29c-22.34-.59-28.15-6.62-28.25-28.61,0-4.23-.08-8.45,0-12.67.34-15.2,5.82-20.72,20.9-20.94,8.76-.13,17.53,0,26.29-.14,12.75-.18,18.78-6.11,19.23-18.74a8.29,8.29,0,0,1,0-1.8c1.07-4-2.87-10.39,2.55-11.9,6.5-1.82,13.8-1.54,19.24,4.5,9.69,10.77,10,40.34.38,51.16-3.62,4.07-8.17,5.82-13.69,5.74-11.48-.17-23-.07-34.45,0C120.1,146.78,117,146,113.6,149Zm17.63,10.23c-3.13.34-5.19,2.25-5.23,5.17,0,3.37,2,5.76,5.7,5.46,3.08-.25,4.84-2.27,4.67-5.5S134.41,159.52,131.23,159.25Z"/><path class="cls-3" d="M96.47,73.44c-3-.54-5.32-1.73-5.67-4.92-.4-3.64,1.61-5.77,5-6a4.91,4.91,0,0,1,5.53,4.64C101.82,70.82,99.32,72.35,96.47,73.44Z"/><path class="cls-3" d="M131.23,159.25c3.18.27,5,2,5.14,5.13s-1.59,5.25-4.67,5.5c-3.66.3-5.74-2.09-5.7-5.46C126,161.5,128.1,159.59,131.23,159.25Z"/></svg>