<svg id="Laag_1" data-name="Laag 1" xmlns="http://www.w3.org/2000/svg" viewBox="0 0 205.84 201.1"><defs><style>.cls-1{fill:#2679be;}.cls-2{fill:#fcfdfe;}</style></defs><title>typescript</title><path class="cls-1" d="M21.14,100.55c0-25.7.07-51.39-.08-77.09,0-3.64.83-4.8,4.65-4.79q77.34.2,154.68,0c3.57,0,4.4,1.13,4.39,4.53q-.14,77.34,0,154.67c0,3.39-.81,4.54-4.39,4.53q-77.34-.16-154.67,0c-3.82,0-4.68-1.14-4.66-4.78C21.21,151.94,21.14,126.25,21.14,100.55Zm125.41,68.17c1.82,0,3.65.14,5.46,0,10.74-1,18.51-8,19.66-18.38,1.05-9.43-2.6-16.9-11-21.53-5.79-3.16-11.9-5.75-17.71-8.89-3.5-1.89-5.5-4.93-3.81-9.1,1.76-4.32,5.52-4.19,9.25-3.64a5.91,5.91,0,0,1,4.21,2.43c2.23,3.56,4.57,3.37,7.45.83a26.2,26.2,0,0,1,4.92-3.35c2.27-1.21,2-2.35.64-4.22-4.8-6.58-11.42-9.25-19.29-9.45-15.53-.39-25.56,11.54-22,26.22,1.63,6.82,6.35,11.09,12.25,14.17,5.27,2.75,10.74,5.1,16,7.79,3,1.49,4.16,4.08,3.81,7.42s-2.52,4.87-5.34,5.81c-5.66,1.91-11.48,1.41-15-3.24-4-5.21-7.27-4.64-11.53-1.15a10,10,0,0,1-2.59,1.45c-2.86,1.14-2.58,2.67-1,4.88C127.13,165.67,136,169.09,146.55,168.72Zm-68-30.65V158c0,10.47,0,10.24,10.27,10.48,4.19.09,4.84-1.48,4.8-5.15-.18-14.25-.15-28.5,0-42.75,0-4.08-1.86-9.41.85-11.92s7.91-.67,12-.72c8.8-.11,8.64,0,8.64-8.7,0-3.73-.9-5.16-5-5.08-14.24.27-28.5.11-42.75.11-10.49,0-10.49,0-9.94,10.36,0,.17,0,.34,0,.5-.22,2.22.91,2.84,3,2.8,5-.08,9.95.11,14.92-.08,2.66-.1,3.37.85,3.33,3.42C78.5,120.17,78.58,129.12,78.58,138.07Z"/><path class="cls-2" d="M146.55,168.72c-10.58.37-19.42-3.05-25.73-12-1.56-2.21-1.84-3.74,1-4.88a10,10,0,0,0,2.59-1.45c4.26-3.49,7.53-4.06,11.53,1.15,3.57,4.65,9.39,5.15,15,3.24,2.82-.94,5-2.52,5.34-5.81s-.86-5.93-3.81-7.42c-5.3-2.69-10.77-5-16-7.79-5.9-3.08-10.62-7.35-12.25-14.17-3.53-14.68,6.5-26.61,22-26.22,7.87.2,14.49,2.87,19.29,9.45,1.37,1.87,1.63,3-.64,4.22a26.2,26.2,0,0,0-4.92,3.35c-2.88,2.54-5.22,2.73-7.45-.83a5.91,5.91,0,0,0-4.21-2.43c-3.73-.55-7.49-.68-9.25,3.64-1.69,4.17.31,7.21,3.81,9.1,5.81,3.14,11.92,5.73,17.71,8.89,8.45,4.63,12.1,12.1,11,21.53-1.15,10.37-8.92,17.39-19.66,18.38C150.2,168.86,148.37,168.72,146.55,168.72Z"/><path class="cls-2" d="M78.58,138.07c0-8.95-.08-17.9,0-26.84,0-2.57-.67-3.52-3.33-3.42-5,.19-10,0-14.92.08-2.05,0-3.18-.58-3-2.8,0-.16,0-.33,0-.5-.55-10.37-.55-10.36,9.94-10.36,14.25,0,28.51.16,42.75-.11,4.11-.08,5,1.35,5,5.08,0,8.67.16,8.59-8.64,8.7-4.11,0-9.36-1.74-12,.72s-.81,7.84-.85,11.92c-.12,14.25-.15,28.5,0,42.75,0,3.67-.61,5.24-4.8,5.15-10.26-.24-10.27,0-10.27-10.48Z"/></svg>